<?xml version="1.0" standalone="no"?>
<!DOCTYPE svg PUBLIC "-//W3C//DTD SVG 20010904//EN"
 "http://www.w3.org/TR/2001/REC-SVG-20010904/DTD/svg10.dtd">
<svg version="1.0" xmlns="http://www.w3.org/2000/svg"
 width="467.000000pt" height="467.000000pt" viewBox="0 0 467.000000 467.000000"
 preserveAspectRatio="xMidYMid meet">
<metadata>
Created by potrace 1.11, written by Peter Selinger 2001-2013
</metadata>
<g transform="translate(0.000000,467.000000) scale(0.100000,-0.100000)"
fill="#000000" stroke="none">
<path d="M0 2335 l0 -2335 2335 0 2335 0 0 2335 0 2335 -2335 0 -2335 0 0
-2335z m2140 1161 c0 -2 -10 -2 -22 2 -16 4 -19 2 -13 -8 6 -9 4 -11 -6 -5 -8
5 -11 4 -6 -1 12 -12 66 -12 60 1 -3 6 5 0 17 -12 22 -21 24 -21 36 -5 12 15
13 14 14 -12 0 -29 1 -29 16 -10 15 18 15 18 10 0 -5 -14 -2 -17 11 -12 17 6
17 5 1 -8 -26 -19 -22 -27 7 -16 16 6 25 6 25 0 0 -6 -4 -10 -10 -10 -5 0 -10
-4 -10 -10 0 -6 9 -6 24 0 15 5 27 5 35 -3 8 -8 11 -8 11 3 0 10 4 9 18 -3 20
-19 37 -23 27 -7 -3 6 -1 10 4 10 6 0 11 -4 11 -10 0 -5 7 -7 15 -4 11 5 13 2
8 -12 -4 -12 -3 -15 5 -10 15 9 15 36 0 36 -6 0 -8 3 -5 7 4 3 17 -3 28 -16
18 -19 19 -24 7 -38 -12 -15 -11 -15 12 -2 14 8 28 18 32 23 10 14 40 16 57 5
13 -9 14 -10 1 -6 -8 2 -20 -1 -26 -8 -9 -9 -5 -12 17 -12 18 0 29 6 29 14 0
7 5 13 11 13 7 0 9 -9 6 -21 -3 -13 -1 -19 6 -16 7 2 11 14 10 26 -3 19 -1 20
17 9 11 -7 20 -16 20 -21 0 -4 -4 -5 -10 -2 -5 3 -10 1 -10 -4 0 -16 27 -13
33 3 3 7 15 16 27 19 21 5 21 5 3 -15 -17 -21 -17 -21 1 -15 10 4 25 2 32 -4
11 -9 17 -9 28 0 10 8 16 8 25 -2 6 -8 7 -18 3 -22 -4 -5 -1 -5 7 0 20 12 62
15 55 4 -3 -5 2 -9 10 -9 9 0 16 4 16 8 0 5 6 9 14 9 9 0 12 -7 8 -16 -3 -10
4 -7 21 8 15 14 30 22 33 18 4 -4 -1 -9 -10 -13 -9 -3 -16 -10 -16 -16 0 -5 5
-6 10 -3 6 3 10 1 10 -6 0 -8 7 -6 19 5 21 19 46 13 38 -8 -3 -7 1 -13 9 -13
7 0 10 5 7 10 -3 5 0 7 8 5 8 -3 13 -9 12 -14 -1 -5 13 -10 30 -11 50 -4 57
-6 57 -15 0 -4 6 -7 13 -5 6 1 11 -4 10 -10 -2 -7 3 -13 11 -13 8 0 17 -6 20
-12 3 -7 3 -2 0 12 -3 14 -2 20 3 14 14 -19 53 -35 65 -28 8 5 9 2 5 -10 -6
-14 -3 -16 13 -11 15 5 18 3 14 -9 -4 -11 0 -16 11 -16 11 0 15 -5 12 -15 -5
-11 -1 -12 19 -4 29 10 44 5 44 -17 0 -13 12 -18 35 -15 6 1 2 -5 -8 -13 -19
-15 -16 -56 4 -56 5 0 9 -6 9 -14 0 -8 7 -17 15 -20 12 -4 13 -10 6 -25 -8
-14 -8 -20 0 -23 6 -2 12 -20 13 -40 0 -20 -2 -34 -6 -32 -5 3 -8 1 -8 -5 0
-5 5 -13 11 -16 7 -5 5 -11 -5 -18 -21 -17 -25 -75 -6 -88 13 -9 13 -10 -1 -6
-13 4 -15 1 -11 -15 3 -13 1 -19 -5 -15 -6 4 -10 -3 -9 -16 1 -12 0 -26 -3
-32 -2 -5 -5 -29 -6 -54 0 -25 -6 -46 -13 -49 -9 -3 -8 -7 1 -17 15 -14 15
-35 3 -73 -4 -13 -3 -28 2 -35 18 -24 22 -46 7 -40 -8 3 -12 10 -8 16 4 6 1 7
-6 3 -9 -6 -8 -13 5 -27 10 -11 12 -19 6 -19 -12 0 -10 -41 3 -72 5 -12 2 -20
-9 -24 -9 -3 -16 -15 -16 -26 0 -16 3 -18 14 -9 11 9 14 4 14 -28 1 -25 -4
-41 -14 -45 -17 -6 -18 -49 -3 -78 10 -18 9 -20 -5 -15 -14 6 -17 2 -14 -21 3
-27 19 -34 27 -11 2 7 -1 9 -8 5 -6 -4 -11 -2 -11 3 0 6 7 11 15 11 8 0 15 -6
15 -14 0 -16 -24 -38 -32 -30 -3 3 -9 1 -13 -5 -3 -7 2 -11 14 -11 12 0 21 -3
21 -6 0 -12 -51 -54 -59 -49 -5 2 -7 -11 -5 -31 2 -24 -3 -40 -17 -52 -10 -10
-17 -27 -14 -38 15 -68 16 -69 7 -50 -5 11 -17 21 -28 22 -19 3 -19 2 0 -12
11 -8 14 -14 7 -14 -7 0 -10 -4 -7 -9 9 -14 -5 -42 -17 -34 -6 4 -8 0 -4 -10
5 -12 1 -17 -12 -17 -11 0 -22 6 -24 13 -4 9 -6 9 -6 0 -1 -6 4 -15 9 -18 13
-8 13 -42 -1 -50 -6 -4 -9 0 -7 10 2 10 -3 20 -11 23 -10 3 -13 -2 -9 -22 6
-28 -15 -48 -40 -39 -9 3 -12 -2 -10 -13 2 -13 -4 -20 -20 -22 -12 -2 -20 -8
-16 -13 3 -5 10 -6 16 -3 7 4 8 2 4 -5 -4 -6 -3 -18 4 -26 9 -11 7 -12 -9 -8
-13 3 -18 10 -13 21 5 15 4 15 -12 3 -9 -8 -15 -20 -12 -27 3 -8 2 -13 -2 -13
-21 4 -42 -2 -42 -12 0 -6 9 -8 21 -4 15 5 19 4 14 -5 -4 -7 -17 -9 -31 -6
-18 5 -22 3 -18 -8 3 -9 -1 -13 -13 -13 -14 2 -17 -4 -15 -27 3 -23 0 -27 -13
-22 -9 3 -21 6 -26 6 -6 0 -7 5 -3 12 4 6 -5 3 -19 -8 -26 -19 -35 -34 -19
-34 4 0 13 5 19 11 8 8 13 7 18 -3 5 -7 5 -10 0 -6 -4 4 -15 2 -23 -4 -11 -10
-17 -8 -29 7 -15 19 -15 19 -8 -2 5 -18 3 -22 -9 -17 -10 4 -18 0 -22 -10 -5
-13 -9 -14 -20 -5 -12 10 -13 9 -8 -5 4 -12 0 -16 -15 -16 -12 0 -21 -5 -21
-12 0 -6 -9 -3 -20 7 -11 10 -23 15 -27 12 -3 -4 -1 -7 4 -7 6 0 10 -7 9 -15
-3 -21 -16 -31 -16 -12 0 9 -5 19 -11 22 -6 4 -9 0 -7 -11 3 -17 -32 -42 -66
-48 -28 -5 -56 -18 -57 -27 -1 -5 -2 -15 -3 -21 0 -7 -11 -14 -23 -16 -13 -2
-29 -13 -37 -24 -9 -12 -19 -17 -27 -12 -8 5 -11 2 -6 -8 3 -10 -3 -19 -19
-27 -32 -14 -47 -14 -38 0 5 8 1 8 -13 0 -11 -6 -24 -7 -28 -3 -5 4 -5 1 -1
-6 5 -7 14 -11 22 -8 8 3 14 1 14 -5 0 -7 -12 -8 -30 -4 -27 6 -43 -6 -22 -18
4 -2 2 -2 -5 -1 -6 2 -22 -7 -35 -19 -13 -12 -32 -21 -42 -19 -11 3 -16 0 -12
-7 12 -19 -4 -33 -22 -19 -13 11 -15 11 -10 -4 8 -19 -29 -32 -58 -21 -13 5
-15 3 -9 -7 6 -10 1 -12 -23 -7 -26 5 -30 4 -26 -11 5 -14 3 -14 -10 2 -10 13
-16 15 -16 7 0 -11 -3 -11 -16 0 -14 11 -18 11 -28 -2 -6 -9 -21 -15 -33 -14
-13 1 -23 -3 -23 -9 0 -6 -6 -4 -13 5 -7 9 -18 14 -26 11 -8 -3 -11 0 -7 7 4
6 1 11 -8 11 -8 0 -17 -6 -20 -12 -3 -7 -3 -2 1 12 5 22 4 23 -11 11 -15 -12
-21 -8 -17 13 1 5 -5 6 -14 2 -10 -4 -19 2 -25 18 -4 13 -17 26 -27 30 -17 7
-17 8 0 17 19 11 24 31 4 24 -6 -3 -18 4 -25 15 -10 17 -10 20 5 20 14 1 12 4
-7 15 -16 9 -29 10 -37 4 -7 -7 -14 -6 -19 2 -4 7 -3 9 3 6 5 -3 10 0 10 8 0
10 -6 11 -23 5 -18 -7 -22 -6 -18 5 4 9 -3 18 -17 25 -13 5 -33 16 -43 24 -16
13 -17 18 -5 32 13 16 12 16 -10 5 -15 -8 -21 -9 -17 -2 8 13 -5 15 -20 4 -5
-5 -2 -1 8 8 16 16 16 18 -12 39 -17 13 -30 28 -30 35 0 8 -10 11 -27 8 -27
-4 -27 -4 -9 11 18 15 15 21 -8 17 -5 -1 -6 5 -3 13 8 19 -21 49 -39 42 -8 -3
-13 -2 -13 2 1 4 1 19 0 34 -1 21 -5 25 -21 21 -16 -4 -19 -2 -13 12 4 13 3
16 -5 11 -15 -9 -3 26 12 36 6 4 -6 8 -26 8 -39 0 -49 15 -26 38 9 9 8 12 -5
12 -9 0 -17 -4 -17 -10 0 -5 -4 -10 -10 -10 -5 0 -7 7 -4 15 4 8 12 15 20 15
8 0 14 5 14 10 0 6 -9 10 -21 10 -14 0 -19 5 -16 15 4 8 1 17 -5 21 -7 4 -6
10 3 16 10 6 6 7 -11 2 -22 -6 -23 -5 -11 10 12 14 12 16 -3 10 -15 -6 -20 5
-19 44 1 6 -4 12 -9 12 -6 0 -5 6 2 15 9 11 9 15 1 15 -7 0 -9 5 -4 13 14 23
12 39 -5 32 -14 -5 -14 -4 1 13 20 22 22 36 5 26 -10 -5 -10 -4 -1 6 9 10 10
17 2 27 -9 9 -8 13 0 13 7 0 9 5 6 10 -4 6 -11 7 -17 4 -7 -4 -8 -2 -4 4 4 7
14 12 23 12 13 0 14 2 2 17 -12 14 -12 16 0 8 11 -6 13 -4 8 8 -4 11 -1 17 9
17 8 0 12 5 9 10 -4 6 -11 8 -16 5 -15 -10 -10 5 12 36 18 26 18 29 3 29 -13
0 -14 3 -5 14 8 9 8 21 1 40 -7 19 -6 26 3 27 9 0 9 2 0 5 -7 3 -9 12 -6 21 4
11 2 14 -5 9 -16 -10 -16 16 0 32 9 9 9 12 -1 12 -11 0 -11 3 0 17 12 15 12
16 -4 10 -11 -4 -16 -3 -12 3 3 6 13 10 21 10 8 0 14 4 14 10 0 5 -3 9 -7 9
-19 -3 -33 2 -33 12 0 5 4 7 10 4 5 -3 18 -1 27 4 16 9 15 10 -7 11 -25 1 -25
1 -5 16 20 16 20 16 -1 10 -14 -4 -24 -2 -27 8 -4 10 -1 13 8 9 15 -5 37 34
28 50 -2 4 2 7 9 7 7 1 2 8 -12 16 l-25 15 28 -4 c25 -4 28 -2 22 17 -15 52
-15 58 0 46 12 -10 15 -9 15 3 0 9 -4 19 -10 22 -13 8 -13 25 1 25 5 0 7 -4 4
-10 -3 -5 -1 -10 5 -10 6 0 10 8 8 18 -2 9 2 22 10 27 11 9 16 27 21 82 0 7 7
10 15 7 8 -3 17 0 21 6 3 6 1 9 -6 8 -7 -2 -14 6 -16 17 -1 11 0 14 3 7 5 -10
9 -10 20 -1 8 6 11 15 8 21 -3 5 0 16 8 25 11 14 10 15 -12 8 -25 -8 -25 -8
-6 14 15 17 22 19 29 9 9 -13 7 -4 -10 40 -4 12 0 10 15 -6 21 -24 37 -16 25
14 -5 14 -2 16 13 12 16 -4 20 0 22 20 1 14 -3 31 -9 39 -7 7 -9 16 -5 20 3 3
6 1 6 -5 0 -7 5 -12 11 -12 5 0 7 5 4 10 -3 6 -2 10 4 10 5 0 11 -4 13 -9 2
-5 11 -4 20 3 11 8 14 17 7 27 -7 11 -9 11 -9 -3 0 -10 -4 -18 -10 -18 -23 0
-8 29 20 39 22 7 29 7 24 -1 -4 -6 -1 -9 7 -6 8 3 14 11 14 19 0 7 9 15 20 17
25 5 45 22 25 22 -9 0 -7 7 8 20 13 13 19 26 15 37 -5 13 -2 15 11 10 14 -5
17 -3 13 8 -4 8 -2 17 3 20 4 3 11 -1 13 -7 3 -7 6 -4 7 7 1 24 27 61 36 52 9
-9 34 12 34 27 0 6 -5 4 -10 -4 -5 -8 -10 -10 -10 -4 0 6 11 23 24 37 23 24
23 28 8 38 -15 9 -14 10 5 6 13 -3 26 -1 29 4 3 5 10 6 16 3 7 -4 8 -2 4 4 -4
7 -3 12 3 12 6 0 8 6 5 14 -3 8 0 17 7 22 7 4 10 3 6 -3 -4 -6 4 -13 17 -15
17 -4 23 -1 19 9 -3 7 -9 11 -13 8 -5 -3 -6 4 -3 15 7 27 21 34 38 20 12 -10
15 -9 15 4 0 9 4 16 9 16 6 0 21 10 35 23 24 22 24 24 8 42 -16 18 -16 18 2 5
17 -13 20 -13 29 2 8 12 16 14 29 7 10 -5 18 -11 18 -13z m60 -16 c0 -5 -5
-10 -11 -10 -5 0 -7 5 -4 10 3 6 8 10 11 10 2 0 4 -4 4 -10z m1123 -324 c-3
-4 -9 -2 -14 5 -13 22 -11 31 5 17 8 -7 12 -17 9 -22z m-1611 -48 c-7 -7 -12
-8 -12 -2 0 14 12 26 19 19 2 -3 -1 -11 -7 -17z m1711 -68 c-7 -28 -13 -25
-13 6 0 14 4 23 9 20 5 -3 7 -15 4 -26z m32 -30 c3 -5 1 -10 -4 -10 -6 0 -11
5 -11 10 0 6 2 10 4 10 3 0 8 -4 11 -10z m-2033 -302 c-7 -7 -12 -8 -12 -2 0
14 12 26 19 19 2 -3 -1 -11 -7 -17z m-3 -62 c-3 -3 -11 5 -18 17 -13 21 -12
21 5 5 10 -10 16 -20 13 -22z m-69 -176 c0 -5 -5 -10 -11 -10 -8 0 -7 -5 1
-15 11 -13 10 -14 -4 -9 -18 7 -18 7 -10 28 7 18 24 22 24 6z m2065 -110 c4
-6 1 -9 -7 -8 -7 2 -12 -5 -11 -16 1 -11 -2 -15 -8 -9 -11 11 -2 43 11 43 5 0
12 -5 15 -10z m-65 -430 c-12 -23 -16 -24 -26 -8 -4 6 -3 8 3 5 6 -4 13 0 17
8 3 8 8 15 11 15 3 0 1 -9 -5 -20z m-45 -80 c3 -5 1 -10 -4 -10 -6 0 -11 5
-11 10 0 6 2 10 4 10 3 0 8 -4 11 -10z m-679 -595 c-1 -8 -5 -17 -8 -21 -5 -4
-4 16 1 34 3 9 9 -1 7 -13z m-62 -61 c3 -8 2 -12 -4 -9 -6 3 -10 10 -10 16 0
14 7 11 14 -7z m-754 -44 c0 -5 -2 -10 -4 -10 -3 0 -8 5 -11 10 -3 6 -1 10 4
10 6 0 11 -4 11 -10z m300 -174 c14 -18 14 -19 -8 -7 -12 7 -20 17 -16 22 3 6
7 9 8 7 1 -2 8 -12 16 -22z"/>
<path d="M1970 3397 c0 -9 4 -18 9 -21 5 -4 8 1 7 9 -3 21 -16 31 -16 12z"/>
<path d="M2965 3290 c-3 -5 -1 -10 4 -10 6 0 11 5 11 10 0 6 -2 10 -4 10 -3 0
-8 -4 -11 -10z"/>
<path d="M1800 3189 c0 -5 5 -7 10 -4 6 3 10 8 10 11 0 2 -4 4 -10 4 -5 0 -10
-5 -10 -11z"/>
<path d="M2320 2911 c-8 -6 -18 -7 -22 -4 -5 2 -15 0 -22 -6 -7 -6 -37 -13
-68 -15 -111 -10 -219 -66 -318 -166 -316 -315 -225 -845 180 -1051 249 -126
571 -74 755 122 120 128 183 263 185 400 2 153 -14 242 -58 340 -32 70 -87
146 -101 141 -8 -3 -11 0 -8 6 8 12 -31 64 -43 57 -4 -3 -14 3 -21 12 -20 24
-145 103 -162 103 -9 0 -17 4 -19 8 -1 5 -41 21 -88 35 -86 27 -163 34 -190
18z"/>
<path d="M3354 2205 c4 -24 16 -30 16 -7 0 12 -4 22 -9 22 -5 0 -8 -7 -7 -15z"/>
<path d="M3240 1776 c0 -8 4 -17 9 -20 5 -4 7 3 4 14 -6 23 -13 26 -13 6z"/>
<path d="M3151 1644 c0 -11 3 -14 6 -6 3 7 2 16 -1 19 -3 4 -6 -2 -5 -13z"/>
<path d="M1420 1610 c0 -6 7 -10 15 -10 8 0 15 2 15 4 0 2 -7 6 -15 10 -8 3
-15 1 -15 -4z"/>
<path d="M3030 1540 c-13 -8 -12 -10 3 -10 9 0 17 5 17 10 0 12 -1 12 -20 0z"/>
<path d="M1520 1490 c-12 -8 -10 -10 8 -10 13 0 20 4 17 10 -7 12 -6 12 -25 0z"/>
<path d="M1709 1247 c7 -7 14 -8 21 -1 6 6 2 10 -12 11 -16 2 -18 -1 -9 -10z"/>
<path d="M1873 1086 c9 -7 17 -18 17 -25 0 -6 5 -11 10 -11 6 0 10 3 10 8 -1
14 -28 42 -41 42 -10 -1 -9 -4 4 -14z"/>
<path d="M2007 1009 c7 -7 15 -10 18 -7 3 3 -2 9 -12 12 -14 6 -15 5 -6 -5z"/>
</g>
</svg>
